<svg width="16" height="16" viewBox="0 0 16 16" fill="none" xmlns="http://www.w3.org/2000/svg">
<path d="M13.3124 11.0804V6.75C13.3124 4.39298 13.3124 3.21447 12.5801 2.48223C11.8479 1.75 10.6694 1.75 8.31238 1.75H7.68738C5.33035 1.75 4.15185 1.75 3.41961 2.48223C2.68738 3.21447 2.68738 4.39298 2.68738 6.75V12.6875" stroke="#989CAA" stroke-width="1.29231" stroke-linecap="round"/>
<path d="M13.3124 11.125H4.24988C3.38693 11.125 2.68738 11.8246 2.68738 12.6875C2.68738 13.5504 3.38693 14.25 4.24988 14.25H13.3124" stroke="#989CAA" stroke-width="1.29231" stroke-linecap="round"/>
<path d="M13.3124 14.25C12.4494 14.25 11.7499 13.5504 11.7499 12.6875C11.7499 11.8246 12.4494 11.125 13.3124 11.125" stroke="#989CAA" stroke-width="1.29231" stroke-linecap="round"/>
<path d="M9.87488 4.87503H6.12488" stroke="#989CAA" stroke-width="1.29231" stroke-linecap="round" stroke-linejoin="round"/>
<path d="M7.99988 7.375H6.12488" stroke="#989CAA" stroke-width="1.29231" stroke-linecap="round" stroke-linejoin="round"/>
</svg>
