<svg width="20" height="19" viewBox="0 0 20 19" fill="none" xmlns="http://www.w3.org/2000/svg">
<path d="M3.14798 9.45196C2.35796 8.07438 1.9765 6.94953 1.74649 5.8093C1.40631 4.12294 2.1848 2.47564 3.47444 1.42452C4.0195 0.980277 4.64432 1.13206 4.96663 1.71029L5.69428 3.01572C6.27103 4.05044 6.55941 4.56779 6.50221 5.11629C6.44502 5.66479 6.0561 6.11151 5.27827 7.00497L3.14798 9.45196ZM3.14798 9.45196C4.74705 12.2402 7.25649 14.751 10.048 16.352M10.048 16.352C11.4255 17.142 12.5504 17.5235 13.6906 17.7535C15.377 18.0936 17.0243 17.3151 18.0754 16.0255C18.5196 15.4805 18.3679 14.8556 17.7896 14.5333L16.4842 13.8056C15.4495 13.2289 14.9321 12.9405 14.3836 12.9977C13.8351 13.0549 13.3884 13.4438 12.495 14.2216L10.048 16.352Z" stroke="#EF4136" stroke-width="1.5" stroke-linejoin="round"/>
</svg>
