<svg width="14" height="14" viewBox="0 0 14 14" fill="none" xmlns="http://www.w3.org/2000/svg">
<path d="M9.04167 7.58333C11.1357 7.58333 12.8333 7.061 12.8333 6.41667C12.8333 5.77233 11.1357 5.25 9.04167 5.25C6.94759 5.25 5.25 5.77233 5.25 6.41667C5.25 7.061 6.94759 7.58333 9.04167 7.58333Z" stroke="#231F20" stroke-width="1.2"/>
<path d="M12.8333 9.04166C12.8333 9.68601 11.1358 10.2083 9.04167 10.2083C6.94756 10.2083 5.25 9.68601 5.25 9.04166" stroke="#231F20" stroke-width="1.2"/>
<path d="M12.8333 6.41667V11.55C12.8333 12.2588 11.1358 12.8333 9.04167 12.8333C6.94756 12.8333 5.25 12.2588 5.25 11.55V6.41667" stroke="#231F20" stroke-width="1.2"/>
<path d="M4.95842 3.5C7.0525 3.5 8.75008 2.97767 8.75008 2.33333C8.75008 1.689 7.0525 1.16667 4.95842 1.16667C2.86434 1.16667 1.16675 1.689 1.16675 2.33333C1.16675 2.97767 2.86434 3.5 4.95842 3.5Z" stroke="#231F20" stroke-width="1.2"/>
<path d="M3.50008 6.41667C2.39653 6.28238 1.38253 5.93513 1.16675 5.25M3.50008 9.33333C2.39653 9.19905 1.38253 8.85179 1.16675 8.16667" stroke="#231F20" stroke-width="1.2" stroke-linecap="round"/>
<path d="M3.50008 12.25C2.39653 12.1157 1.38253 11.7685 1.16675 11.0833V2.33333" stroke="#231F20" stroke-width="1.2" stroke-linecap="round"/>
<path d="M8.75 3.5V2.33333" stroke="#231F20" stroke-width="1.2" stroke-linecap="round"/>
</svg>
