<svg width="39" height="38" viewBox="0 0 39 38" fill="none" xmlns="http://www.w3.org/2000/svg">
<rect x="0.5" y="0.5" width="38" height="37" rx="9.5" stroke="white" stroke-opacity="0.25"/>
<path d="M23.0116 13.152L24.1797 11.9839C24.8248 11.3387 25.8708 11.3387 26.516 11.9839C27.1611 12.629 27.1611 13.675 26.516 14.3201L25.3478 15.4883M23.0116 13.152L18.65 17.5136C17.7789 18.3847 17.3434 18.8202 17.0468 19.3509C16.7502 19.8817 16.4518 21.1349 16.1665 22.3333C17.3649 22.048 18.6182 21.7496 19.1489 21.453C19.6797 21.1564 20.1152 20.7209 20.9863 19.8498L25.3478 15.4883M23.0116 13.152L25.3478 15.4883" stroke="white" stroke-width="1.5" stroke-linecap="round" stroke-linejoin="round"/>
<path d="M27 19C27 22.5355 27 24.3033 25.9017 25.4017C24.8033 26.5 23.0355 26.5 19.5 26.5C15.9645 26.5 14.1967 26.5 13.0983 25.4017C12 24.3033 12 22.5355 12 19C12 15.4645 12 13.6967 13.0983 12.5983C14.1967 11.5 15.9645 11.5 19.5 11.5" stroke="white" stroke-width="1.5" stroke-linecap="round"/>
</svg>
