<svg width="16" height="16" viewBox="0 0 16 16" fill="none" xmlns="http://www.w3.org/2000/svg">
<path d="M2.06238 8C2.06238 5.20104 2.06238 3.80156 2.9319 2.93202C3.80143 2.0625 5.20092 2.0625 7.99988 2.0625C10.7988 2.0625 12.1983 2.0625 13.0679 2.93202C13.9374 3.80156 13.9374 5.20104 13.9374 8C13.9374 10.7989 13.9374 12.1984 13.0679 13.068C12.1983 13.9375 10.7988 13.9375 7.99988 13.9375C5.20092 13.9375 3.80143 13.9375 2.9319 13.068C2.06238 12.1984 2.06238 10.7989 2.06238 8Z" stroke="#989CAA" stroke-width="1.29231"/>
<path d="M6.75 6.12503C6.75 5.43467 7.30963 4.87503 8 4.87503C8.69037 4.87503 9.25 5.43467 9.25 6.12503C9.25 6.37387 9.17731 6.60574 9.05194 6.80053C8.67837 7.38109 8 7.93466 8 8.62503V8.93753" stroke="#989CAA" stroke-width="1.29231" stroke-linecap="round"/>
<path d="M7.995 11.125H8.00025" stroke="#989CAA" stroke-width="1.61538" stroke-linecap="round" stroke-linejoin="round"/>
</svg>
