<svg width="20" height="21" viewBox="0 0 20 21" fill="none" xmlns="http://www.w3.org/2000/svg">
<path d="M7.61945 9.40915L7.79188 9.23674C9.44079 7.58775 12.1143 7.58775 13.7632 9.23674C15.4122 10.8857 15.4122 13.5592 13.7632 15.2081L11.3747 17.5966C9.72579 19.2456 7.05228 19.2456 5.40333 17.5966C3.75439 15.9477 3.75439 13.2742 5.40333 11.6252L5.79029 11.2383" stroke="#EF4136" stroke-width="1.5" stroke-linecap="round"/>
<path d="M14.2097 9.76168L14.5966 9.37477C16.2456 7.72581 16.2456 5.05234 14.5966 3.40339C12.9477 1.75445 10.2742 1.75445 8.62525 3.40339L6.23671 5.79194C4.58776 7.44088 4.58776 10.1143 6.23671 11.7633C7.88566 13.4123 10.5592 13.4123 12.2081 11.7633L12.3805 11.5908" stroke="#EF4136" stroke-width="1.5" stroke-linecap="round"/>
</svg>
