<svg width="20" height="21" viewBox="0 0 20 21" fill="none" xmlns="http://www.w3.org/2000/svg">
<path d="M12.9167 9.66667C12.9167 11.2775 11.6109 12.5833 10 12.5833C8.38921 12.5833 7.08337 11.2775 7.08337 9.66667C7.08337 8.05583 8.38921 6.75 10 6.75C11.6109 6.75 12.9167 8.05583 12.9167 9.66667Z" stroke="#EF4136" stroke-width="1.5"/>
<path d="M10 2.16669C14.0588 2.16669 17.5 5.5275 17.5 9.60485C17.5 13.7471 14.0027 16.6539 10.7725 18.6306C10.5371 18.7635 10.2708 18.8334 10 18.8334C9.72917 18.8334 9.46292 18.7635 9.2275 18.6306C6.00325 16.6347 2.5 13.7614 2.5 9.60485C2.5 5.5275 5.9412 2.16669 10 2.16669Z" stroke="#EF4136" stroke-width="1.5"/>
</svg>
