<svg width="16" height="16" viewBox="0 0 16 16" fill="none" xmlns="http://www.w3.org/2000/svg">
<path d="M1.75 4.25C1.75 3.07149 1.75 2.48223 2.11612 2.11612C2.48223 1.75 3.07149 1.75 4.25 1.75C5.42851 1.75 6.01777 1.75 6.38388 2.11612C6.75 2.48223 6.75 3.07149 6.75 4.25V5.5C6.75 6.67851 6.75 7.26775 6.38388 7.63387C6.01777 8 5.42851 8 4.25 8C3.07149 8 2.48223 8 2.11612 7.63387C1.75 7.26775 1.75 6.67851 1.75 5.5V4.25Z" stroke="#989CAA" stroke-width="1.29231"/>
<path d="M1.75 12.3749C1.75 11.7925 1.75 11.5013 1.84515 11.2716C1.97202 10.9653 2.21536 10.7219 2.52164 10.5951C2.75136 10.4999 3.04257 10.4999 3.625 10.4999H4.875C5.45742 10.4999 5.74864 10.4999 5.97836 10.5951C6.28464 10.7219 6.52798 10.9653 6.65485 11.2716C6.75 11.5013 6.75 11.7925 6.75 12.3749C6.75 12.9574 6.75 13.2486 6.65485 13.4783C6.52798 13.7846 6.28464 14.0279 5.97836 14.1548C5.74864 14.2499 5.45742 14.2499 4.875 14.2499H3.625C3.04257 14.2499 2.75136 14.2499 2.52164 14.1548C2.21536 14.0279 1.97202 13.7846 1.84515 13.4783C1.75 13.2486 1.75 12.9574 1.75 12.3749Z" stroke="#989CAA" stroke-width="1.29231"/>
<path d="M9.24988 10.5C9.24988 9.3215 9.24988 8.73225 9.616 8.36613C9.98213 8 10.5714 8 11.7499 8C12.9284 8 13.5176 8 13.8838 8.36613C14.2499 8.73225 14.2499 9.3215 14.2499 10.5V11.75C14.2499 12.9285 14.2499 13.5177 13.8838 13.8839C13.5176 14.25 12.9284 14.25 11.7499 14.25C10.5714 14.25 9.98213 14.25 9.616 13.8839C9.24988 13.5177 9.24988 12.9285 9.24988 11.75V10.5Z" stroke="#989CAA" stroke-width="1.29231"/>
<path d="M9.24988 3.625C9.24988 3.04258 9.24988 2.75136 9.345 2.52164C9.47188 2.21536 9.71525 1.97202 10.0215 1.84515C10.2513 1.75 10.5424 1.75 11.1249 1.75H12.3749C12.9573 1.75 13.2485 1.75 13.4783 1.84515C13.7845 1.97202 14.0279 2.21536 14.1548 2.52164C14.2499 2.75136 14.2499 3.04258 14.2499 3.625C14.2499 4.20742 14.2499 4.49864 14.1548 4.72836C14.0279 5.03464 13.7845 5.27798 13.4783 5.40485C13.2485 5.5 12.9573 5.5 12.3749 5.5H11.1249C10.5424 5.5 10.2513 5.5 10.0215 5.40485C9.71525 5.27798 9.47188 5.03464 9.345 4.72836C9.24988 4.49864 9.24988 4.20742 9.24988 3.625Z" stroke="#989CAA" stroke-width="1.29231"/>
</svg>
