<svg width="22" height="22" viewBox="0 0 22 22" fill="none" xmlns="http://www.w3.org/2000/svg">
<path d="M9.16683 5.50001C9.16683 3.47497 7.52521 1.83334 5.50016 1.83334C3.47512 1.83334 1.8335 3.47497 1.8335 5.50001C1.8335 7.52506 3.47512 9.16668 5.50016 9.16668C7.52521 9.16668 9.16683 7.52506 9.16683 5.50001Z" stroke="white" stroke-width="1.5"/>
<path d="M9.16683 16.5C9.16683 14.475 7.52521 12.8333 5.50016 12.8333C3.47512 12.8333 1.8335 14.475 1.8335 16.5C1.8335 18.525 3.47512 20.1667 5.50016 20.1667C7.52521 20.1667 9.16683 18.525 9.16683 16.5Z" stroke="white" stroke-width="1.5"/>
<path d="M20.1668 5.50001C20.1668 3.47497 18.5252 1.83334 16.5002 1.83334C14.4752 1.83334 12.8335 3.47497 12.8335 5.50001C12.8335 7.52506 14.4752 9.16668 16.5002 9.16668C18.5252 9.16668 20.1668 7.52506 20.1668 5.50001Z" stroke="white" stroke-width="1.5"/>
<path d="M20.1668 16.5C20.1668 14.475 18.5252 12.8333 16.5002 12.8333C14.4752 12.8333 12.8335 14.475 12.8335 16.5C12.8335 18.525 14.4752 20.1667 16.5002 20.1667C18.5252 20.1667 20.1668 18.525 20.1668 16.5Z" stroke="white" stroke-width="1.5"/>
</svg>
