<svg width="190" height="190" viewBox="0 0 190 190" fill="none" xmlns="http://www.w3.org/2000/svg">
<circle opacity="0.14" cx="95" cy="95" r="94" stroke="#EF4136" stroke-width="2"/>
<circle cx="95" cy="95" r="74" stroke="#80221C" stroke-width="2"/>
<path fill-rule="evenodd" clip-rule="evenodd" d="M91.9999 20C91.9999 18.3431 93.3431 17 94.9999 17C109.369 17 123.458 20.969 135.714 28.469C147.97 35.9691 157.916 46.7088 164.455 59.5034C170.994 72.2979 173.872 86.65 172.771 100.976C171.67 115.303 166.633 129.047 158.216 140.692C149.799 152.337 138.328 161.431 125.07 166.971C111.813 172.51 97.2821 174.28 83.0821 172.084C68.8822 169.889 55.5646 163.814 44.5986 154.529C33.6325 145.244 25.4442 133.111 20.9369 119.468C20.4172 117.894 21.2712 116.198 22.8444 115.678C24.4176 115.158 26.1143 116.012 26.6341 117.586C30.7946 130.179 38.3531 141.379 48.4756 149.95C58.5981 158.52 70.8912 164.128 83.9989 166.155C97.1065 168.181 110.519 166.548 122.757 161.434C134.995 156.321 145.583 147.927 153.353 137.177C161.123 126.428 165.772 113.741 166.788 100.517C167.805 87.2924 165.148 74.0442 159.112 62.2339C153.076 50.4235 143.895 40.51 132.582 33.5868C121.269 26.6637 108.263 23 94.9999 23C93.3431 23 91.9999 21.6569 91.9999 20Z" fill="#EF4136"/>
</svg>
