<svg width="16" height="16" viewBox="0 0 16 16" fill="none" xmlns="http://www.w3.org/2000/svg">
<path d="M2.06238 8.00003C2.06238 5.20107 2.06238 3.80159 2.9319 2.93206C3.80143 2.06253 5.20092 2.06253 7.99988 2.06253C10.7988 2.06253 12.1983 2.06253 13.0679 2.93206C13.9374 3.80159 13.9374 5.20107 13.9374 8.00003C13.9374 10.799 13.9374 12.1985 13.0679 13.068C12.1983 13.9375 10.7988 13.9375 7.99988 13.9375C5.20092 13.9375 3.80143 13.9375 2.9319 13.068C2.06238 12.1985 2.06238 10.799 2.06238 8.00003Z" stroke="#989CAA" stroke-width="1.29231"/>
<path d="M7.37488 4.87503H11.1249" stroke="#989CAA" stroke-width="1.29231" stroke-linecap="round"/>
<path d="M4.875 4.87503H5.5" stroke="#989CAA" stroke-width="1.29231" stroke-linecap="round"/>
<path d="M4.875 8H5.5" stroke="#989CAA" stroke-width="1.29231" stroke-linecap="round"/>
<path d="M4.875 11.125H5.5" stroke="#989CAA" stroke-width="1.29231" stroke-linecap="round"/>
<path d="M7.37488 8H11.1249" stroke="#989CAA" stroke-width="1.29231" stroke-linecap="round"/>
<path d="M7.37488 11.125H11.1249" stroke="#989CAA" stroke-width="1.29231" stroke-linecap="round"/>
</svg>
