<svg width="250" height="250" viewBox="0 0 250 250" fill="none" xmlns="http://www.w3.org/2000/svg">
<g clip-path="url(#clip0_41_2327)">
<path d="M21.875 0.78125H228.125C239.775 0.78125 249.219 10.2252 249.219 21.875V228.125C249.219 239.775 239.775 249.219 228.125 249.219H21.875C10.2252 249.219 0.78125 239.775 0.78125 228.125V21.875C0.78125 10.2252 10.2252 0.78125 21.875 0.78125Z" fill="#FEF3F2" stroke="#EF4136" stroke-width="1.5625"/>
<path d="M134.26 27.7778C136.816 27.7778 138.889 29.8506 138.889 32.4074C138.889 34.9644 136.816 37.0371 134.26 37.0371C131.703 37.0371 129.63 34.9644 129.63 32.4074C129.63 29.8506 131.703 27.7778 134.26 27.7778Z" fill="#231F20"/>
<path d="M143.519 27.7778C146.076 27.7778 148.149 29.8506 148.149 32.4074C148.149 34.9644 146.076 37.0371 143.519 37.0371C140.962 37.0371 138.89 34.9644 138.89 32.4074C138.89 29.8506 140.962 27.7778 143.519 27.7778Z" fill="#231F20"/>
<path d="M106.481 37.0371C109.038 37.0371 111.111 39.1098 111.111 41.6667C111.111 44.2237 109.038 46.2963 106.481 46.2963C103.924 46.2963 101.852 44.2237 101.852 41.6667C101.852 39.1098 103.924 37.0371 106.481 37.0371Z" fill="#231F20"/>
<path d="M115.741 37.0371C118.298 37.0371 120.371 39.1098 120.371 41.6667C120.371 44.2237 118.298 46.2963 115.741 46.2963C113.185 46.2963 111.112 44.2237 111.112 41.6667C111.112 39.1098 113.185 37.0371 115.741 37.0371Z" fill="#231F20"/>
<path d="M134.26 37.0371C136.816 37.0371 138.889 39.1098 138.889 41.6667C138.889 44.2237 136.816 46.2963 134.26 46.2963C131.703 46.2963 129.63 44.2237 129.63 41.6667C129.63 39.1098 131.703 37.0371 134.26 37.0371Z" fill="#231F20"/>
<path d="M143.519 37.0371C146.076 37.0371 148.149 39.1098 148.149 41.6667C148.149 44.2237 146.076 46.2963 143.519 46.2963C140.962 46.2963 138.89 44.2237 138.89 41.6667C138.89 39.1098 140.962 37.0371 143.519 37.0371Z" fill="#231F20"/>
<path d="M106.481 46.2963C109.038 46.2963 111.111 48.3691 111.111 50.9259C111.111 53.4829 109.038 55.5556 106.481 55.5556C103.924 55.5556 101.852 53.4829 101.852 50.9259C101.852 48.3691 103.924 46.2963 106.481 46.2963Z" fill="#231F20"/>
<path d="M115.741 46.2963C118.298 46.2963 120.371 48.3691 120.371 50.9259C120.371 53.4829 118.298 55.5556 115.741 55.5556C113.185 55.5556 111.112 53.4829 111.112 50.9259C111.112 48.3691 113.185 46.2963 115.741 46.2963Z" fill="#231F20"/>
<path d="M125.001 46.2963C127.558 46.2963 129.63 48.3691 129.63 50.9259C129.63 53.4829 127.558 55.5556 125.001 55.5556C122.444 55.5556 120.371 53.4829 120.371 50.9259C120.371 48.3691 122.444 46.2963 125.001 46.2963Z" fill="#231F20"/>
<path d="M106.481 55.5556C109.038 55.5556 111.111 57.6283 111.111 60.1852C111.111 62.7422 109.038 64.8148 106.481 64.8148C103.924 64.8148 101.852 62.7422 101.852 60.1852C101.852 57.6283 103.924 55.5556 106.481 55.5556Z" fill="#231F20"/>
<path d="M115.741 55.5556C118.298 55.5556 120.371 57.6283 120.371 60.1852C120.371 62.7422 118.298 64.8148 115.741 64.8148C113.185 64.8148 111.112 62.7422 111.112 60.1852C111.112 57.6283 113.185 55.5556 115.741 55.5556Z" fill="#231F20"/>
<path d="M134.26 55.5556C136.816 55.5556 138.889 57.6283 138.889 60.1852C138.889 62.7422 136.816 64.8148 134.26 64.8148C131.703 64.8148 129.63 62.7422 129.63 60.1852C129.63 57.6283 131.703 55.5556 134.26 55.5556Z" fill="#231F20"/>
<path d="M143.519 55.5556C146.076 55.5556 148.149 57.6283 148.149 60.1852C148.149 62.7422 146.076 64.8148 143.519 64.8148C140.962 64.8148 138.89 62.7422 138.89 60.1852C138.89 57.6283 140.962 55.5556 143.519 55.5556Z" fill="#231F20"/>
<path d="M143.519 64.8148C146.076 64.8148 148.149 66.8876 148.149 69.4444C148.149 72.0014 146.076 74.0741 143.519 74.0741C140.962 74.0741 138.89 72.0014 138.89 69.4444C138.89 66.8876 140.962 64.8148 143.519 64.8148Z" fill="#231F20"/>
<path d="M134.26 74.0741C136.816 74.0741 138.889 76.1469 138.889 78.7037C138.889 81.2607 136.816 83.3334 134.26 83.3334C131.703 83.3334 129.63 81.2607 129.63 78.7037C129.63 76.1469 131.703 74.0741 134.26 74.0741Z" fill="#231F20"/>
<path d="M106.481 83.3334C109.038 83.3334 111.111 85.4061 111.111 87.963C111.111 90.52 109.038 92.5926 106.481 92.5926C103.924 92.5926 101.852 90.52 101.852 87.963C101.852 85.4061 103.924 83.3334 106.481 83.3334Z" fill="#231F20"/>
<path d="M125.001 83.3334C127.558 83.3334 129.63 85.4061 129.63 87.963C129.63 90.52 127.558 92.5926 125.001 92.5926C122.444 92.5926 120.371 90.52 120.371 87.963C120.371 85.4061 122.444 83.3334 125.001 83.3334Z" fill="#231F20"/>
<path d="M143.519 83.3334C146.076 83.3334 148.149 85.4061 148.149 87.963C148.149 90.52 146.076 92.5926 143.519 92.5926C140.962 92.5926 138.89 90.52 138.89 87.963C138.89 85.4061 140.962 83.3334 143.519 83.3334Z" fill="#231F20"/>
<path d="M106.481 92.5926C109.038 92.5926 111.111 94.6654 111.111 97.2222C111.111 99.7792 109.038 101.852 106.481 101.852C103.924 101.852 101.852 99.7792 101.852 97.2222C101.852 94.6654 103.924 92.5926 106.481 92.5926Z" fill="#231F20"/>
<path d="M125.001 92.5926C127.558 92.5926 129.63 94.6654 129.63 97.2222C129.63 99.7792 127.558 101.852 125.001 101.852C122.444 101.852 120.371 99.7792 120.371 97.2222C120.371 94.6654 122.444 92.5926 125.001 92.5926Z" fill="#231F20"/>
<path d="M32.4075 101.852C34.9644 101.852 37.0371 103.925 37.0371 106.481C37.0371 109.038 34.9644 111.111 32.4075 111.111C29.8506 111.111 27.7778 109.038 27.7778 106.481C27.7778 103.925 29.8506 101.852 32.4075 101.852Z" fill="#231F20"/>
<path d="M87.9631 101.852C90.5201 101.852 92.5928 103.925 92.5928 106.481C92.5928 109.038 90.5201 111.111 87.9631 111.111C85.4063 111.111 83.3335 109.038 83.3335 106.481C83.3335 103.925 85.4063 101.852 87.9631 101.852Z" fill="#231F20"/>
<path d="M106.481 101.852C109.038 101.852 111.111 103.925 111.111 106.481C111.111 109.038 109.038 111.111 106.481 111.111C103.924 111.111 101.852 109.038 101.852 106.481C101.852 103.925 103.924 101.852 106.481 101.852Z" fill="#231F20"/>
<path d="M115.741 101.852C118.298 101.852 120.371 103.925 120.371 106.481C120.371 109.038 118.298 111.111 115.741 111.111C113.185 111.111 111.112 109.038 111.112 106.481C111.112 103.925 113.185 101.852 115.741 101.852Z" fill="#231F20"/>
<path d="M125.001 101.852C127.558 101.852 129.63 103.925 129.63 106.481C129.63 109.038 127.558 111.111 125.001 111.111C122.444 111.111 120.371 109.038 120.371 106.481C120.371 103.925 122.444 101.852 125.001 101.852Z" fill="#231F20"/>
<path d="M134.26 101.852C136.816 101.852 138.889 103.925 138.889 106.481C138.889 109.038 136.816 111.111 134.26 111.111C131.703 111.111 129.63 109.038 129.63 106.481C129.63 103.925 131.703 101.852 134.26 101.852Z" fill="#231F20"/>
<path d="M152.778 101.852C155.335 101.852 157.408 103.925 157.408 106.481C157.408 109.038 155.335 111.111 152.778 111.111C150.221 111.111 148.148 109.038 148.148 106.481C148.148 103.925 150.221 101.852 152.778 101.852Z" fill="#231F20"/>
<path d="M162.038 101.852C164.595 101.852 166.668 103.925 166.668 106.481C166.668 109.038 164.595 111.111 162.038 111.111C159.481 111.111 157.409 109.038 157.409 106.481C157.409 103.925 159.481 101.852 162.038 101.852Z" fill="#231F20"/>
<path d="M189.814 101.852C192.371 101.852 194.443 103.925 194.443 106.481C194.443 109.038 192.371 111.111 189.814 111.111C187.257 111.111 185.184 109.038 185.184 106.481C185.184 103.925 187.257 101.852 189.814 101.852Z" fill="#231F20"/>
<path d="M199.074 101.852C201.631 101.852 203.704 103.925 203.704 106.481C203.704 109.038 201.631 111.111 199.074 111.111C196.518 111.111 194.445 109.038 194.445 106.481C194.445 103.925 196.518 101.852 199.074 101.852Z" fill="#231F20"/>
<path d="M208.333 101.852C210.89 101.852 212.963 103.925 212.963 106.481C212.963 109.038 210.89 111.111 208.333 111.111C205.776 111.111 203.704 109.038 203.704 106.481C203.704 103.925 205.776 101.852 208.333 101.852Z" fill="#231F20"/>
<path d="M32.4075 111.111C34.9644 111.111 37.0371 113.184 37.0371 115.741C37.0371 118.298 34.9644 120.37 32.4075 120.37C29.8506 120.37 27.7778 118.298 27.7778 115.741C27.7778 113.184 29.8506 111.111 32.4075 111.111Z" fill="#231F20"/>
<path d="M41.6662 111.111C44.2232 111.111 46.2959 113.184 46.2959 115.741C46.2959 118.298 44.2232 120.37 41.6662 120.37C39.1094 120.37 37.0366 118.298 37.0366 115.741C37.0366 113.184 39.1094 111.111 41.6662 111.111Z" fill="#231F20"/>
<path d="M50.9265 111.111C53.4835 111.111 55.5561 113.184 55.5561 115.741C55.5561 118.298 53.4835 120.37 50.9265 120.37C48.3697 120.37 46.2969 118.298 46.2969 115.741C46.2969 113.184 48.3697 111.111 50.9265 111.111Z" fill="#231F20"/>
<path d="M134.26 111.111C136.816 111.111 138.889 113.184 138.889 115.741C138.889 118.298 136.816 120.37 134.26 120.37C131.703 120.37 129.63 118.298 129.63 115.741C129.63 113.184 131.703 111.111 134.26 111.111Z" fill="#231F20"/>
<path d="M143.519 111.111C146.076 111.111 148.149 113.184 148.149 115.741C148.149 118.298 146.076 120.37 143.519 120.37C140.962 120.37 138.89 118.298 138.89 115.741C138.89 113.184 140.962 111.111 143.519 111.111Z" fill="#231F20"/>
<path d="M171.295 111.111C173.852 111.111 175.924 113.184 175.924 115.741C175.924 118.298 173.852 120.37 171.295 120.37C168.738 120.37 166.665 118.298 166.665 115.741C166.665 113.184 168.738 111.111 171.295 111.111Z" fill="#231F20"/>
<path d="M180.556 111.111C183.113 111.111 185.186 113.184 185.186 115.741C185.186 118.298 183.113 120.37 180.556 120.37C177.999 120.37 175.926 118.298 175.926 115.741C175.926 113.184 177.999 111.111 180.556 111.111Z" fill="#231F20"/>
<path d="M199.074 111.111C201.631 111.111 203.704 113.184 203.704 115.741C203.704 118.298 201.631 120.37 199.074 120.37C196.518 120.37 194.445 118.298 194.445 115.741C194.445 113.184 196.518 111.111 199.074 111.111Z" fill="#231F20"/>
<path d="M208.333 111.111C210.89 111.111 212.963 113.184 212.963 115.741C212.963 118.298 210.89 120.37 208.333 120.37C205.776 120.37 203.704 118.298 203.704 115.741C203.704 113.184 205.776 111.111 208.333 111.111Z" fill="#231F20"/>
<path d="M217.593 111.111C220.15 111.111 222.223 113.184 222.223 115.741C222.223 118.298 220.15 120.37 217.593 120.37C215.037 120.37 212.964 118.298 212.964 115.741C212.964 113.184 215.037 111.111 217.593 111.111Z" fill="#231F20"/>
<path d="M32.4075 120.37C34.9644 120.37 37.0371 122.443 37.0371 125C37.0371 127.557 34.9644 129.63 32.4075 129.63C29.8506 129.63 27.7778 127.557 27.7778 125C27.7778 122.443 29.8506 120.37 32.4075 120.37Z" fill="#231F20"/>
<path d="M50.9265 120.37C53.4835 120.37 55.5561 122.443 55.5561 125C55.5561 127.557 53.4835 129.63 50.9265 129.63C48.3697 129.63 46.2969 127.557 46.2969 125C46.2969 122.443 48.3697 120.37 50.9265 120.37Z" fill="#231F20"/>
<path d="M60.1853 120.37C62.7423 120.37 64.8149 122.443 64.8149 125C64.8149 127.557 62.7423 129.63 60.1853 129.63C57.6284 129.63 55.5557 127.557 55.5557 125C55.5557 122.443 57.6284 120.37 60.1853 120.37Z" fill="#231F20"/>
<path d="M78.7043 120.37C81.2613 120.37 83.334 122.443 83.334 125C83.334 127.557 81.2613 129.63 78.7043 129.63C76.1475 129.63 74.0747 127.557 74.0747 125C74.0747 122.443 76.1475 120.37 78.7043 120.37Z" fill="#231F20"/>
<path d="M87.9631 120.37C90.5201 120.37 92.5928 122.443 92.5928 125C92.5928 127.557 90.5201 129.63 87.9631 129.63C85.4063 129.63 83.3335 127.557 83.3335 125C83.3335 122.443 85.4063 120.37 87.9631 120.37Z" fill="#231F20"/>
<path d="M106.481 120.37C109.038 120.37 111.111 122.443 111.111 125C111.111 127.557 109.038 129.63 106.481 129.63C103.924 129.63 101.852 127.557 101.852 125C101.852 122.443 103.924 120.37 106.481 120.37Z" fill="#231F20"/>
<path d="M115.741 120.37C118.298 120.37 120.371 122.443 120.371 125C120.371 127.557 118.298 129.63 115.741 129.63C113.185 129.63 111.112 127.557 111.112 125C111.112 122.443 113.185 120.37 115.741 120.37Z" fill="#231F20"/>
<path d="M125.001 120.37C127.558 120.37 129.63 122.443 129.63 125C129.63 127.557 127.558 129.63 125.001 129.63C122.444 129.63 120.371 127.557 120.371 125C120.371 122.443 122.444 120.37 125.001 120.37Z" fill="#231F20"/>
<path d="M143.519 120.37C146.076 120.37 148.149 122.443 148.149 125C148.149 127.557 146.076 129.63 143.519 129.63C140.962 129.63 138.89 127.557 138.89 125C138.89 122.443 140.962 120.37 143.519 120.37Z" fill="#231F20"/>
<path d="M152.778 120.37C155.335 120.37 157.408 122.443 157.408 125C157.408 127.557 155.335 129.63 152.778 129.63C150.221 129.63 148.148 127.557 148.148 125C148.148 122.443 150.221 120.37 152.778 120.37Z" fill="#231F20"/>
<path d="M162.038 120.37C164.595 120.37 166.668 122.443 166.668 125C166.668 127.557 164.595 129.63 162.038 129.63C159.481 129.63 157.409 127.557 157.409 125C157.409 122.443 159.481 120.37 162.038 120.37Z" fill="#231F20"/>
<path d="M171.295 120.37C173.852 120.37 175.924 122.443 175.924 125C175.924 127.557 173.852 129.63 171.295 129.63C168.738 129.63 166.665 127.557 166.665 125C166.665 122.443 168.738 120.37 171.295 120.37Z" fill="#231F20"/>
<path d="M208.333 120.37C210.89 120.37 212.963 122.443 212.963 125C212.963 127.557 210.89 129.63 208.333 129.63C205.776 129.63 203.704 127.557 203.704 125C203.704 122.443 205.776 120.37 208.333 120.37Z" fill="#231F20"/>
<path d="M217.593 120.37C220.15 120.37 222.223 122.443 222.223 125C222.223 127.557 220.15 129.63 217.593 129.63C215.037 129.63 212.964 127.557 212.964 125C212.964 122.443 215.037 120.37 217.593 120.37Z" fill="#231F20"/>
<path d="M32.4075 129.63C34.9644 129.63 37.0371 131.702 37.0371 134.259C37.0371 136.816 34.9644 138.889 32.4075 138.889C29.8506 138.889 27.7778 136.816 27.7778 134.259C27.7778 131.702 29.8506 129.63 32.4075 129.63Z" fill="#231F20"/>
<path d="M50.9265 129.63C53.4835 129.63 55.5561 131.702 55.5561 134.259C55.5561 136.816 53.4835 138.889 50.9265 138.889C48.3697 138.889 46.2969 136.816 46.2969 134.259C46.2969 131.702 48.3697 129.63 50.9265 129.63Z" fill="#231F20"/>
<path d="M60.1853 129.63C62.7423 129.63 64.8149 131.702 64.8149 134.259C64.8149 136.816 62.7423 138.889 60.1853 138.889C57.6284 138.889 55.5557 136.816 55.5557 134.259C55.5557 131.702 57.6284 129.63 60.1853 129.63Z" fill="#231F20"/>
<path d="M69.4451 129.63C72.002 129.63 74.0747 131.702 74.0747 134.259C74.0747 136.816 72.002 138.889 69.4451 138.889C66.8882 138.889 64.8154 136.816 64.8154 134.259C64.8154 131.702 66.8882 129.63 69.4451 129.63Z" fill="#231F20"/>
<path d="M78.7043 129.63C81.2613 129.63 83.334 131.702 83.334 134.259C83.334 136.816 81.2613 138.889 78.7043 138.889C76.1475 138.889 74.0747 136.816 74.0747 134.259C74.0747 131.702 76.1475 129.63 78.7043 129.63Z" fill="#231F20"/>
<path d="M115.741 129.63C118.298 129.63 120.371 131.702 120.371 134.259C120.371 136.816 118.298 138.889 115.741 138.889C113.185 138.889 111.112 136.816 111.112 134.259C111.112 131.702 113.185 129.63 115.741 129.63Z" fill="#231F20"/>
<path d="M134.26 129.63C136.816 129.63 138.889 131.702 138.889 134.259C138.889 136.816 136.816 138.889 134.26 138.889C131.703 138.889 129.63 136.816 129.63 134.259C129.63 131.702 131.703 129.63 134.26 129.63Z" fill="#231F20"/>
<path d="M143.519 129.63C146.076 129.63 148.149 131.702 148.149 134.259C148.149 136.816 146.076 138.889 143.519 138.889C140.962 138.889 138.89 136.816 138.89 134.259C138.89 131.702 140.962 129.63 143.519 129.63Z" fill="#231F20"/>
<path d="M162.038 129.63C164.595 129.63 166.668 131.702 166.668 134.259C166.668 136.816 164.595 138.889 162.038 138.889C159.481 138.889 157.409 136.816 157.409 134.259C157.409 131.702 159.481 129.63 162.038 129.63Z" fill="#231F20"/>
<path d="M171.295 129.63C173.852 129.63 175.924 131.702 175.924 134.259C175.924 136.816 173.852 138.889 171.295 138.889C168.738 138.889 166.665 136.816 166.665 134.259C166.665 131.702 168.738 129.63 171.295 129.63Z" fill="#231F20"/>
<path d="M180.556 129.63C183.113 129.63 185.186 131.702 185.186 134.259C185.186 136.816 183.113 138.889 180.556 138.889C177.999 138.889 175.926 136.816 175.926 134.259C175.926 131.702 177.999 129.63 180.556 129.63Z" fill="#231F20"/>
<path d="M189.814 129.63C192.371 129.63 194.443 131.702 194.443 134.259C194.443 136.816 192.371 138.889 189.814 138.889C187.257 138.889 185.184 136.816 185.184 134.259C185.184 131.702 187.257 129.63 189.814 129.63Z" fill="#231F20"/>
<path d="M208.333 129.63C210.89 129.63 212.963 131.702 212.963 134.259C212.963 136.816 210.89 138.889 208.333 138.889C205.776 138.889 203.704 136.816 203.704 134.259C203.704 131.702 205.776 129.63 208.333 129.63Z" fill="#231F20"/>
<path d="M217.593 129.63C220.15 129.63 222.223 131.702 222.223 134.259C222.223 136.816 220.15 138.889 217.593 138.889C215.037 138.889 212.964 136.816 212.964 134.259C212.964 131.702 215.037 129.63 217.593 129.63Z" fill="#231F20"/>
<path d="M32.4075 138.889C34.9644 138.889 37.0371 140.962 37.0371 143.519C37.0371 146.076 34.9644 148.148 32.4075 148.148C29.8506 148.148 27.7778 146.076 27.7778 143.519C27.7778 140.962 29.8506 138.889 32.4075 138.889Z" fill="#231F20"/>
<path d="M69.4451 138.889C72.002 138.889 74.0747 140.962 74.0747 143.519C74.0747 146.076 72.002 148.148 69.4451 148.148C66.8882 148.148 64.8154 146.076 64.8154 143.519C64.8154 140.962 66.8882 138.889 69.4451 138.889Z" fill="#231F20"/>
<path d="M78.7043 138.889C81.2613 138.889 83.334 140.962 83.334 143.519C83.334 146.076 81.2613 148.148 78.7043 148.148C76.1475 148.148 74.0747 146.076 74.0747 143.519C74.0747 140.962 76.1475 138.889 78.7043 138.889Z" fill="#231F20"/>
<path d="M87.9631 138.889C90.5201 138.889 92.5928 140.962 92.5928 143.519C92.5928 146.076 90.5201 148.148 87.9631 148.148C85.4063 148.148 83.3335 146.076 83.3335 143.519C83.3335 140.962 85.4063 138.889 87.9631 138.889Z" fill="#231F20"/>
<path d="M106.481 138.889C109.038 138.889 111.111 140.962 111.111 143.519C111.111 146.076 109.038 148.148 106.481 148.148C103.924 148.148 101.852 146.076 101.852 143.519C101.852 140.962 103.924 138.889 106.481 138.889Z" fill="#231F20"/>
<path d="M125.001 138.889C127.558 138.889 129.63 140.962 129.63 143.519C129.63 146.076 127.558 148.148 125.001 148.148C122.444 148.148 120.371 146.076 120.371 143.519C120.371 140.962 122.444 138.889 125.001 138.889Z" fill="#231F20"/>
<path d="M134.26 138.889C136.816 138.889 138.889 140.962 138.889 143.519C138.889 146.076 136.816 148.148 134.26 148.148C131.703 148.148 129.63 146.076 129.63 143.519C129.63 140.962 131.703 138.889 134.26 138.889Z" fill="#231F20"/>
<path d="M143.519 138.889C146.076 138.889 148.149 140.962 148.149 143.519C148.149 146.076 146.076 148.148 143.519 148.148C140.962 148.148 138.89 146.076 138.89 143.519C138.89 140.962 140.962 138.889 143.519 138.889Z" fill="#231F20"/>
<path d="M152.778 138.889C155.335 138.889 157.408 140.962 157.408 143.519C157.408 146.076 155.335 148.148 152.778 148.148C150.221 148.148 148.148 146.076 148.148 143.519C148.148 140.962 150.221 138.889 152.778 138.889Z" fill="#231F20"/>
<path d="M171.295 138.889C173.852 138.889 175.924 140.962 175.924 143.519C175.924 146.076 173.852 148.148 171.295 148.148C168.738 148.148 166.665 146.076 166.665 143.519C166.665 140.962 168.738 138.889 171.295 138.889Z" fill="#231F20"/>
<path d="M189.814 138.889C192.371 138.889 194.443 140.962 194.443 143.519C194.443 146.076 192.371 148.148 189.814 148.148C187.257 148.148 185.184 146.076 185.184 143.519C185.184 140.962 187.257 138.889 189.814 138.889Z" fill="#231F20"/>
<path d="M199.074 138.889C201.631 138.889 203.704 140.962 203.704 143.519C203.704 146.076 201.631 148.148 199.074 148.148C196.518 148.148 194.445 146.076 194.445 143.519C194.445 140.962 196.518 138.889 199.074 138.889Z" fill="#231F20"/>
<path d="M208.333 138.889C210.89 138.889 212.963 140.962 212.963 143.519C212.963 146.076 210.89 148.148 208.333 148.148C205.776 148.148 203.704 146.076 203.704 143.519C203.704 140.962 205.776 138.889 208.333 138.889Z" fill="#231F20"/>
<path d="M217.593 138.889C220.15 138.889 222.223 140.962 222.223 143.519C222.223 146.076 220.15 148.148 217.593 148.148C215.037 148.148 212.964 146.076 212.964 143.519C212.964 140.962 215.037 138.889 217.593 138.889Z" fill="#231F20"/>
<path d="M106.481 148.148C109.038 148.148 111.111 150.221 111.111 152.778C111.111 155.335 109.038 157.407 106.481 157.407C103.924 157.407 101.852 155.335 101.852 152.778C101.852 150.221 103.924 148.148 106.481 148.148Z" fill="#231F20"/>
<path d="M115.741 148.148C118.298 148.148 120.371 150.221 120.371 152.778C120.371 155.335 118.298 157.407 115.741 157.407C113.185 157.407 111.112 155.335 111.112 152.778C111.112 150.221 113.185 148.148 115.741 148.148Z" fill="#231F20"/>
<path d="M125.001 148.148C127.558 148.148 129.63 150.221 129.63 152.778C129.63 155.335 127.558 157.407 125.001 157.407C122.444 157.407 120.371 155.335 120.371 152.778C120.371 150.221 122.444 148.148 125.001 148.148Z" fill="#231F20"/>
<path d="M143.519 148.148C146.076 148.148 148.149 150.221 148.149 152.778C148.149 155.335 146.076 157.407 143.519 157.407C140.962 157.407 138.89 155.335 138.89 152.778C138.89 150.221 140.962 148.148 143.519 148.148Z" fill="#231F20"/>
<path d="M180.556 148.148C183.113 148.148 185.186 150.221 185.186 152.778C185.186 155.335 183.113 157.407 180.556 157.407C177.999 157.407 175.926 155.335 175.926 152.778C175.926 150.221 177.999 148.148 180.556 148.148Z" fill="#231F20"/>
<path d="M208.333 148.148C210.89 148.148 212.963 150.221 212.963 152.778C212.963 155.335 210.89 157.407 208.333 157.407C205.776 157.407 203.704 155.335 203.704 152.778C203.704 150.221 205.776 148.148 208.333 148.148Z" fill="#231F20"/>
<path d="M115.741 157.407C118.298 157.407 120.371 159.48 120.371 162.037C120.371 164.594 118.298 166.667 115.741 166.667C113.185 166.667 111.112 164.594 111.112 162.037C111.112 159.48 113.185 157.407 115.741 157.407Z" fill="#231F20"/>
<path d="M134.26 157.407C136.816 157.407 138.889 159.48 138.889 162.037C138.889 164.594 136.816 166.667 134.26 166.667C131.703 166.667 129.63 164.594 129.63 162.037C129.63 159.48 131.703 157.407 134.26 157.407Z" fill="#231F20"/>
<path d="M152.778 157.407C155.335 157.407 157.408 159.48 157.408 162.037C157.408 164.594 155.335 166.667 152.778 166.667C150.221 166.667 148.148 164.594 148.148 162.037C148.148 159.48 150.221 157.407 152.778 157.407Z" fill="#231F20"/>
<path d="M162.038 157.407C164.595 157.407 166.668 159.48 166.668 162.037C166.668 164.594 164.595 166.667 162.038 166.667C159.481 166.667 157.409 164.594 157.409 162.037C157.409 159.48 159.481 157.407 162.038 157.407Z" fill="#231F20"/>
<path d="M199.074 157.407C201.631 157.407 203.704 159.48 203.704 162.037C203.704 164.594 201.631 166.667 199.074 166.667C196.518 166.667 194.445 164.594 194.445 162.037C194.445 159.48 196.518 157.407 199.074 157.407Z" fill="#231F20"/>
<path d="M217.593 157.407C220.15 157.407 222.223 159.48 222.223 162.037C222.223 164.594 220.15 166.667 217.593 166.667C215.037 166.667 212.964 164.594 212.964 162.037C212.964 159.48 215.037 157.407 217.593 157.407Z" fill="#231F20"/>
<path d="M115.741 166.667C118.298 166.667 120.371 168.739 120.371 171.296C120.371 173.853 118.298 175.926 115.741 175.926C113.185 175.926 111.112 173.853 111.112 171.296C111.112 168.739 113.185 166.667 115.741 166.667Z" fill="#231F20"/>
<path d="M125.001 166.667C127.558 166.667 129.63 168.739 129.63 171.296C129.63 173.853 127.558 175.926 125.001 175.926C122.444 175.926 120.371 173.853 120.371 171.296C120.371 168.739 122.444 166.667 125.001 166.667Z" fill="#231F20"/>
<path d="M171.295 166.667C173.852 166.667 175.924 168.739 175.924 171.296C175.924 173.853 173.852 175.926 171.295 175.926C168.738 175.926 166.665 173.853 166.665 171.296C166.665 168.739 168.738 166.667 171.295 166.667Z" fill="#231F20"/>
<path d="M180.556 166.667C183.113 166.667 185.186 168.739 185.186 171.296C185.186 173.853 183.113 175.926 180.556 175.926C177.999 175.926 175.926 173.853 175.926 171.296C175.926 168.739 177.999 166.667 180.556 166.667Z" fill="#231F20"/>
<path d="M199.074 166.667C201.631 166.667 203.704 168.739 203.704 171.296C203.704 173.853 201.631 175.926 199.074 175.926C196.518 175.926 194.445 173.853 194.445 171.296C194.445 168.739 196.518 166.667 199.074 166.667Z" fill="#231F20"/>
<path d="M208.333 166.667C210.89 166.667 212.963 168.739 212.963 171.296C212.963 173.853 210.89 175.926 208.333 175.926C205.776 175.926 203.704 173.853 203.704 171.296C203.704 168.739 205.776 166.667 208.333 166.667Z" fill="#231F20"/>
<path d="M125.001 175.926C127.558 175.926 129.63 177.999 129.63 180.555C129.63 183.112 127.558 185.185 125.001 185.185C122.444 185.185 120.371 183.112 120.371 180.555C120.371 177.999 122.444 175.926 125.001 175.926Z" fill="#231F20"/>
<path d="M134.26 175.926C136.816 175.926 138.889 177.999 138.889 180.555C138.889 183.112 136.816 185.185 134.26 185.185C131.703 185.185 129.63 183.112 129.63 180.555C129.63 177.999 131.703 175.926 134.26 175.926Z" fill="#231F20"/>
<path d="M162.038 175.926C164.595 175.926 166.668 177.999 166.668 180.555C166.668 183.112 164.595 185.185 162.038 185.185C159.481 185.185 157.409 183.112 157.409 180.555C157.409 177.999 159.481 175.926 162.038 175.926Z" fill="#231F20"/>
<path d="M171.295 175.926C173.852 175.926 175.924 177.999 175.924 180.556C175.924 183.112 173.852 185.185 171.295 185.185C168.738 185.185 166.665 183.112 166.665 180.556C166.665 177.999 168.738 175.926 171.295 175.926Z" fill="#231F20"/>
<path d="M189.814 175.926C192.371 175.926 194.443 177.999 194.443 180.555C194.443 183.112 192.371 185.185 189.814 185.185C187.257 185.185 185.184 183.112 185.184 180.555C185.184 177.999 187.257 175.926 189.814 175.926Z" fill="#231F20"/>
<path d="M208.333 175.926C210.89 175.926 212.963 177.999 212.963 180.555C212.963 183.112 210.89 185.185 208.333 185.185C205.776 185.185 203.704 183.112 203.704 180.555C203.704 177.999 205.776 175.926 208.333 175.926Z" fill="#231F20"/>
<path d="M115.741 185.185C118.298 185.185 120.371 187.258 120.371 189.815C120.371 192.372 118.298 194.444 115.741 194.444C113.185 194.444 111.112 192.372 111.112 189.815C111.112 187.258 113.185 185.185 115.741 185.185Z" fill="#231F20"/>
<path d="M125.001 185.185C127.558 185.185 129.63 187.258 129.63 189.815C129.63 192.372 127.558 194.444 125.001 194.444C122.444 194.444 120.371 192.372 120.371 189.815C120.371 187.258 122.444 185.185 125.001 185.185Z" fill="#231F20"/>
<path d="M143.519 185.185C146.076 185.185 148.149 187.258 148.149 189.815C148.149 192.372 146.076 194.444 143.519 194.444C140.962 194.444 138.89 192.372 138.89 189.815C138.89 187.258 140.962 185.185 143.519 185.185Z" fill="#231F20"/>
<path d="M115.741 194.444C118.298 194.444 120.371 196.517 120.371 199.074C120.371 201.631 118.298 203.704 115.741 203.704C113.185 203.704 111.112 201.631 111.112 199.074C111.112 196.517 113.185 194.444 115.741 194.444Z" fill="#231F20"/>
<path d="M134.26 194.444C136.816 194.444 138.889 196.517 138.889 199.074C138.889 201.631 136.816 203.704 134.26 203.704C131.703 203.704 129.63 201.631 129.63 199.074C129.63 196.517 131.703 194.444 134.26 194.444Z" fill="#231F20"/>
<path d="M143.519 194.444C146.076 194.444 148.149 196.517 148.149 199.074C148.149 201.631 146.076 203.704 143.519 203.704C140.962 203.704 138.89 201.631 138.89 199.074C138.89 196.517 140.962 194.444 143.519 194.444Z" fill="#231F20"/>
<path d="M152.778 194.444C155.335 194.444 157.408 196.517 157.408 199.074C157.408 201.631 155.335 203.704 152.778 203.704C150.221 203.704 148.148 201.631 148.148 199.074C148.148 196.517 150.221 194.444 152.778 194.444Z" fill="#231F20"/>
<path d="M162.038 194.444C164.595 194.444 166.668 196.517 166.668 199.074C166.668 201.631 164.595 203.704 162.038 203.704C159.481 203.704 157.409 201.631 157.409 199.074C157.409 196.517 159.481 194.444 162.038 194.444Z" fill="#231F20"/>
<path d="M171.295 194.444C173.852 194.444 175.924 196.517 175.924 199.074C175.924 201.631 173.852 203.704 171.295 203.704C168.738 203.704 166.665 201.631 166.665 199.074C166.665 196.517 168.738 194.444 171.295 194.444Z" fill="#231F20"/>
<path d="M189.814 194.444C192.371 194.444 194.443 196.517 194.443 199.074C194.443 201.631 192.371 203.704 189.814 203.704C187.257 203.704 185.184 201.631 185.184 199.074C185.184 196.517 187.257 194.444 189.814 194.444Z" fill="#231F20"/>
<path d="M199.074 194.444C201.631 194.444 203.704 196.517 203.704 199.074C203.704 201.631 201.631 203.704 199.074 203.704C196.518 203.704 194.445 201.631 194.445 199.074C194.445 196.517 196.518 194.444 199.074 194.444Z" fill="#231F20"/>
<path d="M208.333 194.444C210.89 194.444 212.963 196.517 212.963 199.074C212.963 201.631 210.89 203.704 208.333 203.704C205.776 203.704 203.704 201.631 203.704 199.074C203.704 196.517 205.776 194.444 208.333 194.444Z" fill="#231F20"/>
<path d="M217.593 194.444C220.15 194.444 222.223 196.517 222.223 199.074C222.223 201.631 220.15 203.704 217.593 203.704C215.037 203.704 212.964 201.631 212.964 199.074C212.964 196.517 215.037 194.444 217.593 194.444Z" fill="#231F20"/>
<path d="M115.741 203.704C118.298 203.704 120.371 205.776 120.371 208.333C120.371 210.89 118.298 212.963 115.741 212.963C113.185 212.963 111.112 210.89 111.112 208.333C111.112 205.776 113.185 203.704 115.741 203.704Z" fill="#231F20"/>
<path d="M143.519 203.704C146.076 203.704 148.149 205.776 148.149 208.333C148.149 210.89 146.076 212.963 143.519 212.963C140.962 212.963 138.89 210.89 138.89 208.333C138.89 205.776 140.962 203.704 143.519 203.704Z" fill="#231F20"/>
<path d="M162.038 203.704C164.595 203.704 166.668 205.776 166.668 208.333C166.668 210.89 164.595 212.963 162.038 212.963C159.481 212.963 157.409 210.89 157.409 208.333C157.409 205.776 159.481 203.704 162.038 203.704Z" fill="#231F20"/>
<path d="M171.295 203.704C173.852 203.704 175.924 205.776 175.924 208.333C175.924 210.89 173.852 212.963 171.295 212.963C168.738 212.963 166.665 210.89 166.665 208.333C166.665 205.776 168.738 203.704 171.295 203.704Z" fill="#231F20"/>
<path d="M189.814 203.704C192.371 203.704 194.443 205.776 194.443 208.333C194.443 210.89 192.371 212.963 189.814 212.963C187.257 212.963 185.184 210.89 185.184 208.333C185.184 205.776 187.257 203.704 189.814 203.704Z" fill="#231F20"/>
<path d="M217.593 203.704C220.15 203.704 222.223 205.776 222.223 208.333C222.223 210.89 220.15 212.963 217.593 212.963C215.037 212.963 212.964 210.89 212.964 208.333C212.964 205.776 215.037 203.704 217.593 203.704Z" fill="#231F20"/>
<path d="M106.481 212.963C109.038 212.963 111.111 215.036 111.111 217.593C111.111 220.15 109.038 222.222 106.481 222.222C103.924 222.222 101.852 220.15 101.852 217.593C101.852 215.036 103.924 212.963 106.481 212.963Z" fill="#231F20"/>
<path d="M125.001 212.963C127.558 212.963 129.63 215.036 129.63 217.593C129.63 220.15 127.558 222.222 125.001 222.222C122.444 222.222 120.371 220.15 120.371 217.593C120.371 215.036 122.444 212.963 125.001 212.963Z" fill="#231F20"/>
<path d="M143.519 212.963C146.076 212.963 148.149 215.036 148.149 217.593C148.149 220.15 146.076 222.222 143.519 222.222C140.962 222.222 138.89 220.15 138.89 217.593C138.89 215.036 140.962 212.963 143.519 212.963Z" fill="#231F20"/>
<path d="M152.778 212.963C155.335 212.963 157.408 215.036 157.408 217.593C157.408 220.15 155.335 222.222 152.778 222.222C150.221 222.222 148.148 220.15 148.148 217.593C148.148 215.036 150.221 212.963 152.778 212.963Z" fill="#231F20"/>
<path d="M199.074 212.963C201.631 212.963 203.704 215.036 203.704 217.593C203.704 220.15 201.631 222.222 199.074 222.222C196.518 222.222 194.445 220.15 194.445 217.593C194.445 215.036 196.518 212.963 199.074 212.963Z" fill="#231F20"/>
<path d="M27.7779 70.6988V49.6528C27.7779 37.5914 37.7076 27.7778 49.9064 27.7778H70.465C82.6631 27.7778 92.5928 37.5914 92.5928 49.6528V92.5926L49.9064 92.5797C37.7076 92.5797 27.7779 82.7667 27.7779 70.6988ZM37.5002 70.6988C37.5002 77.4033 43.0652 82.8581 49.909 82.8581L82.8705 82.8678V49.6528C82.8705 42.9516 77.3055 37.5 70.465 37.5H49.9064C43.0652 37.5 37.5002 42.9516 37.5002 49.6528V70.6988Z" fill="#231F20"/>
<path d="M222.224 70.6988V49.6528C222.224 37.5914 212.294 27.7778 200.095 27.7778H179.536C167.338 27.7778 157.409 37.5914 157.409 49.6528V92.5926L200.095 92.5797C212.294 92.5797 222.224 82.7667 222.224 70.6988ZM212.501 70.6988C212.501 77.4033 206.936 82.8581 200.093 82.8581L167.131 82.8678V49.6528C167.131 42.9516 172.696 37.5 179.536 37.5H200.095C206.936 37.5 212.501 42.9516 212.501 49.6528V70.6988Z" fill="#231F20"/>
<path d="M27.7779 179.301V200.347C27.7779 212.409 37.7076 222.222 49.9064 222.222H70.465C82.6631 222.222 92.5928 212.409 92.5928 200.347V157.407L49.9064 157.42C37.7076 157.42 27.7779 167.233 27.7779 179.301ZM37.5002 179.301C37.5002 172.597 43.0652 167.142 49.909 167.142L82.8705 167.132V200.347C82.8705 207.048 77.3055 212.5 70.465 212.5H49.9064C43.0652 212.5 37.5002 207.048 37.5002 200.347V179.301Z" fill="#231F20"/>
<path d="M59.9134 73.5294C67.4337 73.5294 73.53 67.4331 73.53 59.9129C73.53 52.3926 67.4337 46.2963 59.9134 46.2963C52.3932 46.2963 46.2969 52.3926 46.2969 59.9129C46.2969 67.4331 52.3932 73.5294 59.9134 73.5294Z" fill="#231F20"/>
<path d="M189.543 73.5294C197.063 73.5294 203.159 67.4331 203.159 59.9129C203.159 52.3926 197.063 46.2963 189.543 46.2963C182.023 46.2963 175.926 52.3926 175.926 59.9129C175.926 67.4331 182.023 73.5294 189.543 73.5294Z" fill="#231F20"/>
<path d="M59.9134 203.159C67.4337 203.159 73.53 197.063 73.53 189.542C73.53 182.022 67.4337 175.926 59.9134 175.926C52.3932 175.926 46.2969 182.022 46.2969 189.542C46.2969 197.063 52.3932 203.159 59.9134 203.159Z" fill="#231F20"/>
</g>
<defs>
<clipPath id="clip0_41_2327">
<rect width="250" height="250" fill="white"/>
</clipPath>
</defs>
</svg>
