<svg width="16" height="16" viewBox="0 0 16 16" fill="none" xmlns="http://www.w3.org/2000/svg">
<path d="M13.8234 4.96337L13.5149 4.428C13.2816 4.0231 13.165 3.82066 12.9665 3.73993C12.768 3.6592 12.5435 3.7229 12.0946 3.8503L11.3319 4.06511C11.0453 4.13121 10.7446 4.09371 10.4829 3.95925L10.2723 3.83776C10.0479 3.69402 9.87525 3.48208 9.77969 3.23296L9.571 2.6096C9.43375 2.19709 9.36512 1.99083 9.20175 1.87286C9.03844 1.75488 8.82144 1.75488 8.38744 1.75488H7.69069C7.25675 1.75488 7.03975 1.75488 6.87637 1.87286C6.71303 1.99083 6.64441 2.19709 6.50718 2.6096L6.29846 3.23296C6.20291 3.48208 6.03028 3.69402 5.80586 3.83776L5.59531 3.95925C5.33359 4.09371 5.03287 4.13121 4.74624 4.06511L3.98359 3.8503C3.53463 3.7229 3.31016 3.6592 3.11167 3.73993C2.91318 3.82066 2.79653 4.0231 2.56322 4.428L2.25473 4.96337C2.03604 5.3429 1.92669 5.53267 1.94791 5.73468C1.96913 5.9367 2.11552 6.09949 2.40829 6.42508L3.05269 7.1455C3.21019 7.34488 3.32201 7.69238 3.32201 8.00481C3.32201 8.31738 3.21022 8.66475 3.05271 8.86419L2.40829 9.58463C2.11552 9.91025 1.96914 10.073 1.94791 10.2751C1.92669 10.4771 2.03604 10.6668 2.25473 11.0463L2.56321 11.5817C2.79652 11.9866 2.91318 12.1891 3.11167 12.2698C3.31016 12.3505 3.53464 12.2868 3.98361 12.1594L4.74621 11.9446C5.03289 11.8784 5.33367 11.916 5.59542 12.0505L5.80594 12.172C6.03032 12.3158 6.2029 12.5276 6.29844 12.7768L6.50718 13.4002C6.64441 13.8127 6.71303 14.0189 6.87637 14.1369C7.03975 14.2549 7.25675 14.2549 7.69069 14.2549H8.38744C8.82144 14.2549 9.03844 14.2549 9.20175 14.1369C9.36512 14.0189 9.43375 13.8127 9.571 13.4002L9.77975 12.7768C9.87525 12.5276 10.0478 12.3158 10.2722 12.172L10.4827 12.0505C10.7445 11.916 11.0452 11.8784 11.3319 11.9446L12.0946 12.1594C12.5435 12.2868 12.768 12.3505 12.9665 12.2698C13.165 12.1891 13.2816 11.9866 13.5149 11.5817L13.8234 11.0463C14.0421 10.6668 14.1514 10.4771 14.1302 10.2751C14.109 10.073 13.9626 9.91025 13.6699 9.58463L13.0254 8.86419C12.8679 8.66475 12.7561 8.31738 12.7561 8.00481C12.7561 7.69238 12.868 7.34488 13.0254 7.1455L13.6699 6.42508C13.9626 6.09949 14.109 5.9367 14.1302 5.73468C14.1514 5.53267 14.0421 5.3429 13.8234 4.96337Z" stroke="#989CAA" stroke-width="1.29231" stroke-linecap="round"/>
<path d="M5.8125 10.5C6.24914 9.74519 7.06525 9.23731 8 9.23731C8.93475 9.23731 9.75087 9.74519 10.1875 10.5M9.25 6.4375C9.25 7.12788 8.69037 7.6875 8 7.6875C7.30969 7.6875 6.75 7.12788 6.75 6.4375C6.75 5.74714 7.30969 5.1875 8 5.1875C8.69037 5.1875 9.25 5.74714 9.25 6.4375Z" stroke="#989CAA" stroke-width="1.29231" stroke-linecap="round"/>
</svg>
